<?xml version="1.0" encoding="utf-8"?><svg xmlns="http://www.w3.org/2000/svg" xmlns:xlink="http://www.w3.org/1999/xlink"><symbol viewBox="0 0 24 24" id="call" xmlns="http://www.w3.org/2000/svg"><path d="M20.01 15.38c-1.23 0-2.42-.2-3.53-.56a.977.977 0 00-1.01.24l-1.57 1.97c-2.83-1.35-5.48-3.9-6.89-6.83l1.95-1.66c.27-.28.35-.67.24-1.02-.37-1.11-.56-2.3-.56-3.53 0-.54-.45-.99-.99-.99H4.19C3.65 3 3 3.24 3 3.99 3 13.28 10.73 21 20.01 21c.71 0 .99-.63.99-1.18v-3.45c0-.54-.45-.99-.99-.99z"/></symbol><symbol viewBox="0 0 24 24" id="email" xmlns="http://www.w3.org/2000/svg"><path d="M20 4H4c-1.1 0-1.99.9-1.99 2L2 18c0 1.1.9 2 2 2h16c1.1 0 2-.9 2-2V6c0-1.1-.9-2-2-2zm-.4 4.25l-7.07 4.42c-.32.2-.74.2-1.06 0L4.4 8.25a.85.85 0 11.9-1.44L12 11l6.7-4.19a.85.85 0 11.9 1.44z"/></symbol><symbol viewBox="0 0 10 20" id="facebook" xmlns="http://www.w3.org/2000/svg"><path d="M2.65 19.6v-9.01H.2V7.348h2.45v-2.77C2.65 2.398 4.099.4 7.435.4c1.35 0 2.35.126 2.35.126l-.08 3.029s-1.018-.01-2.13-.01c-1.202 0-1.395.54-1.395 1.433v2.369H9.8l-.157 3.244H6.179V19.6H2.651z"/></symbol><symbol viewBox="0 0 20 20" id="instagram" xmlns="http://www.w3.org/2000/svg"><path d="M10 6.81A3.197 3.197 0 006.81 10 3.197 3.197 0 0010 13.19 3.197 3.197 0 0013.19 10 3.197 3.197 0 0010 6.81zM19.568 10c0-1.321.012-2.63-.063-3.949-.074-1.531-.423-2.89-1.543-4.01C16.84.918 15.482.57 13.95.497 12.63.423 11.321.435 10.002.435c-1.32 0-2.63-.012-3.948.062-1.532.074-2.891.424-4.011 1.544C.921 3.163.573 4.52.499 6.05.425 7.372.437 8.681.437 10S.425 12.63.5 13.949c.075 1.531.424 2.89 1.544 4.01 1.122 1.123 2.48 1.47 4.01 1.544 1.322.074 2.63.062 3.95.062 1.32 0 2.63.012 3.948-.062 1.532-.074 2.89-.424 4.01-1.544 1.123-1.122 1.47-2.479 1.544-4.01.077-1.319.063-2.628.063-3.949zM10 14.908A4.901 4.901 0 015.092 10 4.901 4.901 0 0110 5.092 4.901 4.901 0 0114.908 10 4.901 4.901 0 0110 14.908zm5.11-8.871a1.145 1.145 0 01-1.147-1.146c0-.634.512-1.147 1.146-1.147a1.145 1.145 0 01.811 1.958 1.146 1.146 0 01-.81.335z"/></symbol><symbol viewBox="0 0 141 30" id="logo" xmlns="http://www.w3.org/2000/svg"><path d="M0 29.567V0h19.58v5.154H6.145v7.045h12.43v5.154H6.143v7.06h13.494v5.154H0zm37.93-14.581v4.88H24.679v-4.88h13.253zm16.744-7.594v4.62H41.549v-4.62h13.125zM44.529 2.079h6.044v20.674c0 .567.085 1.01.256 1.328.17.308.406.524.71.65.311.125.67.187 1.078.187.283 0 .567-.024.85-.072.285-.058.502-.101.654-.13l.95 4.577a16.79 16.79 0 01-1.277.332c-.548.134-1.215.216-2 .245-1.457.058-2.734-.14-3.831-.592-1.088-.452-1.935-1.155-2.54-2.108-.606-.953-.904-2.156-.894-3.609V2.08zm14.082 27.488V7.392h5.86v3.869h.227c.398-1.377 1.065-2.416 2.001-3.119.937-.712 2.015-1.068 3.235-1.068.303 0 .63.02.98.058.35.038.657.091.921.159v5.457a7.78 7.78 0 00-1.177-.231c-.502-.067-.96-.101-1.377-.101-.889 0-1.683.197-2.383.592-.69.385-1.24.924-1.646 1.617-.397.693-.596 1.491-.596 2.396v12.546H58.61zm21.94.419c-1.39 0-2.63-.246-3.717-.737a6.013 6.013 0 01-2.583-2.209c-.624-.981-.936-2.204-.936-3.667 0-1.232.222-2.266.667-3.104a5.46 5.46 0 011.816-2.02 8.731 8.731 0 012.61-1.156 19.58 19.58 0 013.094-.548 77.09 77.09 0 003.065-.376c.775-.125 1.338-.308 1.688-.548.35-.24.525-.597.525-1.069v-.086c0-.914-.284-1.622-.851-2.122-.558-.5-1.353-.751-2.384-.751-1.088 0-1.953.245-2.597.736-.643.481-1.069 1.088-1.277 1.82l-5.59-.463c.284-1.347.842-2.512 1.674-3.493.833-.992 1.906-1.752 3.221-2.282 1.325-.539 2.857-.808 4.597-.808 1.211 0 2.37.144 3.477.433 1.116.289 2.104.736 2.965 1.343a6.49 6.49 0 012.058 2.338c.501.944.752 2.075.752 3.393v14.957h-5.733v-3.075h-.17a6.244 6.244 0 01-1.405 1.833c-.586.52-1.29.93-2.114 1.227-.823.29-1.774.434-2.852.434zm1.731-4.245c.89 0 1.675-.178 2.356-.534a4.2 4.2 0 001.603-1.473c.388-.616.582-1.313.582-2.093v-2.353c-.19.125-.45.24-.78.346-.322.096-.687.188-1.093.275-.407.077-.814.149-1.22.216-.407.058-.776.11-1.107.159-.71.106-1.33.274-1.859.505-.53.231-.941.544-1.234.939-.294.385-.44.866-.44 1.443 0 .838.298 1.478.894 1.92.605.433 1.371.65 2.298.65zm21.277-8.994v12.82h-6.045V7.392h5.761v3.912h.255a6.172 6.172 0 012.427-3.06c1.135-.76 2.511-1.141 4.129-1.141 1.513 0 2.833.337 3.958 1.01 1.126.674 2.001 1.637 2.625 2.888.625 1.242.937 2.724.937 4.447v14.119h-6.045V16.545c.01-1.357-.331-2.416-1.021-3.176-.691-.77-1.642-1.155-2.852-1.155-.814 0-1.533.178-2.157.534-.615.356-1.097.876-1.447 1.559-.341.674-.516 1.487-.525 2.44zm36.944-3.032l-5.533.347a2.938 2.938 0 00-.61-1.3 3.251 3.251 0 00-1.235-.938c-.501-.24-1.102-.361-1.802-.361-.936 0-1.726.202-2.369.606-.644.395-.965.924-.965 1.588 0 .53.208.977.624 1.343.416.366 1.13.66 2.143.88l3.944.81c2.119.442 3.699 1.154 4.739 2.136 1.041.982 1.561 2.271 1.561 3.869 0 1.453-.421 2.729-1.263 3.826-.832 1.097-1.977 1.953-3.434 2.57-1.447.606-3.116.909-5.008.909-2.885 0-5.184-.611-6.896-1.834-1.703-1.231-2.701-2.906-2.994-5.024l5.945-.317c.18.895.615 1.578 1.306 2.05.69.462 1.575.693 2.653.693 1.059 0 1.911-.207 2.554-.62.653-.424.984-.968.993-1.632-.009-.558-.241-1.016-.695-1.372-.454-.366-1.154-.645-2.1-.837l-3.774-.765c-2.129-.433-3.713-1.184-4.754-2.252-1.031-1.069-1.546-2.43-1.546-4.086 0-1.425.378-2.652 1.135-3.682.766-1.03 1.84-1.823 3.221-2.382 1.39-.558 3.017-.837 4.881-.837 2.752 0 4.919.592 6.498 1.776 1.59 1.184 2.517 2.796 2.781 4.836z"/><path d="M0 30V0h19.942v5.23H6.257v7.148h12.66v5.23H6.256v7.162H20V30H0z"/></symbol><symbol viewBox="0 0 512 512" id="telegram" xmlns="http://www.w3.org/2000/svg"><path d="M256 0C114.615 0 0 114.615 0 256s114.615 256 256 256 256-114.615 256-256S397.385 0 256 0zm133.059 161.936L343.591 379a16.007 16.007 0 01-25.177 9.593l-66.136-48.861-40.068 37.8a5.429 5.429 0 01-7.74-.294l-.861-.946 6.962-67.375 125.484-114.651a3.358 3.358 0 00-4.061-5.317l-160.479 101.57-69.115-23.212a9.393 9.393 0 01-.32-17.694L372.5 147.744a12.441 12.441 0 0116.559 14.192z"/></symbol><symbol viewBox="0 0 512 512" id="twitter" xmlns="http://www.w3.org/2000/svg"><path d="M256 0C114.615 0 0 114.615 0 256s114.615 256 256 256 256-114.615 256-256S397.385 0 256 0zm111.915 198.646c.3 19.091-2.227 114.546-92.824 155.909S116 344.374 116 344.374c50.676 4.772 83.915-23.864 83.915-23.864-41.046-1.75-52.978-39.932-52.978-39.932 14.637 2.546 24.765-1.538 24.765-1.538-45.817-12.3-44.651-56.848-44.651-56.848 13.045 7.742 24.5 6.363 24.5 6.363-42.424-30.545-16.46-76.045-16.46-76.045 47.727 58.864 119.22 60.506 119.22 60.506a67.027 67.027 0 01-1.493-14.37c0-38.181 33.642-57.272 57.273-57.272s41.119 17.818 41.119 17.818c17.978-.8 37.228-13.046 37.228-13.046-7.637 23.228-23.7 31.819-23.7 31.819 14.557-1.591 31.267-8.91 31.267-8.91-5.647 12.41-28.09 29.591-28.09 29.591z"/></symbol></svg>